<?xml version="1.0" encoding="utf-8"?>
<!-- Generator: Adobe Illustrator 23.0.5, SVG Export Plug-In . SVG Version: 6.00 Build 0)  -->
<svg version="1.1" id="圖層_1" xmlns="http://www.w3.org/2000/svg" xmlns:xlink="http://www.w3.org/1999/xlink" x="0px" y="0px"
	 viewBox="0 0 288.1 64.7" style="enable-background:new 0 0 288.1 64.7;" xml:space="preserve">
<style type="text/css">
	.st0{fill:url(#SVGID_1_);}
	.st1{fill:url(#SVGID_2_);}
	.st2{fill:url(#SVGID_3_);}
	.st3{fill:url(#SVGID_4_);}
	.st4{fill:url(#SVGID_5_);}
	.st5{fill:url(#SVGID_6_);}
	.st6{fill:url(#SVGID_7_);}
	.st7{fill:url(#SVGID_8_);}
	.st8{fill:url(#SVGID_9_);}
	.st9{fill:url(#SVGID_10_);}
	.st10{fill:none;stroke:url(#SVGID_11_);stroke-width:5;stroke-miterlimit:10;}
</style>
<linearGradient id="SVGID_1_" gradientUnits="userSpaceOnUse" x1="63.6105" y1="50.1606" x2="193.9605" y2="-80.1994" gradientTransform="matrix(1 0 0 -1 0 63.8898)">
	<stop  offset="0" style="stop-color:#DA8CFF"/>
	<stop  offset="1" style="stop-color:#9A55FF"/>
</linearGradient>
<path class="st0" d="M73.7,14.8v12.5h12.5v5.5H73.7v18h-5.6V9.2h23.6v5.6L73.7,14.8z"/>
<linearGradient id="SVGID_2_" gradientUnits="userSpaceOnUse" x1="70.6243" y1="57.1868" x2="200.9743" y2="-73.1732" gradientTransform="matrix(1 0 0 -1 0 63.8898)">
	<stop  offset="0" style="stop-color:#DA8CFF"/>
	<stop  offset="1" style="stop-color:#9A55FF"/>
</linearGradient>
<path class="st1" d="M110.8,24.1c-0.2,0.9-0.6,1.7-1.2,2.3c-0.8,1.1-1.4,1.9-1.7,2.3c-3-0.9-6.2-0.1-8.4,2c-1.6,1.6-2.4,3.8-2.4,6
	v13.8h-5.5V36.7c-0.1-7.5,5.8-13.7,13.3-13.9c0.2,0,0.4,0,0.5,0c1.7,0,3.5,0.3,5.1,0.9C110.7,23.8,110.8,24,110.8,24.1z"/>
<linearGradient id="SVGID_3_" gradientUnits="userSpaceOnUse" x1="80.0378" y1="66.5996" x2="210.3878" y2="-63.7604" gradientTransform="matrix(1 0 0 -1 0 63.8898)">
	<stop  offset="0" style="stop-color:#DA8CFF"/>
	<stop  offset="1" style="stop-color:#9A55FF"/>
</linearGradient>
<path class="st2" d="M117.4,13.2v5.5h-5.5v-5.5H117.4z M117.4,22.9v27.7h-5.5V22.9H117.4z"/>
<linearGradient id="SVGID_4_" gradientUnits="userSpaceOnUse" x1="87.3297" y1="73.8909" x2="217.6797" y2="-56.4691" gradientTransform="matrix(1 0 0 -1 0 63.8898)">
	<stop  offset="0" style="stop-color:#DA8CFF"/>
	<stop  offset="1" style="stop-color:#9A55FF"/>
</linearGradient>
<path class="st3" d="M129.5,43.7c1.4,1,3.1,1.5,4.8,1.5h12.5v5.6h-12.5v-0.1c-7.5,0.1-13.7-5.9-13.8-13.4c0-0.2,0-0.3,0-0.5
	c-0.1-7.5,5.9-13.7,13.4-13.9c0.2,0,0.3,0,0.5,0c6.6-0.1,12.4,4.6,13.6,11.1l-3.5,5.6h-17.9C127,41.4,128.1,42.8,129.5,43.7z
	 M129.5,30.1c-1.4,1-2.4,2.4-3,4h15.7c-1.6-4.3-6.3-6.6-10.6-5C130.8,29.4,130.2,29.7,129.5,30.1L129.5,30.1z"/>
<linearGradient id="SVGID_5_" gradientUnits="userSpaceOnUse" x1="100.7072" y1="87.2674" x2="231.0572" y2="-43.0926" gradientTransform="matrix(1 0 0 -1 0 63.8898)">
	<stop  offset="0" style="stop-color:#DA8CFF"/>
	<stop  offset="1" style="stop-color:#9A55FF"/>
</linearGradient>
<path class="st4" d="M174.6,26.8c2.6,2.6,4.1,6.2,4,9.9v13.9h-5.5V36.7c0.2-4.6-3.4-8.5-8-8.6c-4.6-0.2-8.5,3.4-8.6,8
	c0,0.2,0,0.4,0,0.6v13.9h-5.5V36.7c0.1-7.7,6.4-13.9,14.2-13.8C168.7,22.9,172.1,24.4,174.6,26.8L174.6,26.8z"/>
<linearGradient id="SVGID_6_" gradientUnits="userSpaceOnUse" x1="123.42" y1="109.9784" x2="253.77" y2="-20.3816" gradientTransform="matrix(1 0 0 -1 0 63.8898)">
	<stop  offset="0" style="stop-color:#DA8CFF"/>
	<stop  offset="1" style="stop-color:#9A55FF"/>
</linearGradient>
<path class="st5" d="M209.4,9.2v29.1h-0.1c-0.7,7.6-7.5,13.2-15.1,12.5c-7.2-0.7-12.6-6.7-12.6-13.9c0-7.7,6.2-13.9,13.8-13.9
	c3,0,5.9,1,8.3,2.8V9.2H209.4z M189.6,31c-1.6,1.6-2.4,3.7-2.4,5.9c-0.2,4.6,3.4,8.5,8,8.6c4.6,0.2,8.5-3.4,8.6-8c0-0.2,0-0.4,0-0.6
	c-0.1-4.6-3.9-8.4-8.5-8.3C193.2,28.7,191.1,29.5,189.6,31z"/>
<linearGradient id="SVGID_7_" gradientUnits="userSpaceOnUse" x1="132.6535" y1="119.2113" x2="263.0035" y2="-11.1487" gradientTransform="matrix(1 0 0 -1 0 63.8898)">
	<stop  offset="0" style="stop-color:#DA8CFF"/>
	<stop  offset="1" style="stop-color:#9A55FF"/>
</linearGradient>
<path class="st6" d="M232.9,36.1c3,1.6,4.4,3.7,4.4,6.4c0,2.7-1.5,4.8-4.4,6.4c-5,2.6-11,2.6-16,0c-3-1.6-4.5-3.7-4.5-6.4h5.5
	c0,1,1,1.7,2.9,2.3c1.3,0.4,2.6,0.5,4,0.5c3.7,0,5.5-0.9,5.5-2.8s-1.9-2.7-5.5-2.7c-2.8,0-5.5-0.6-8-1.9c-3-1.6-4.5-3.7-4.5-6.4
	s1.5-4.8,4.5-6.4c5-2.6,11-2.6,16,0c3,1.6,4.4,3.7,4.4,6.4h-5.5c0-1-1-1.7-2.9-2.2c-1.3-0.4-2.6-0.5-4-0.5c-3.7,0-5.6,0.9-5.6,2.7
	c0,1.8,1.9,2.7,5.6,2.8C227.7,34.1,230.4,34.8,232.9,36.1z"/>
<g>
	
		<linearGradient id="SVGID_8_" gradientUnits="userSpaceOnUse" x1="135.9131" y1="152.4563" x2="266.2631" y2="22.0963" gradientTransform="matrix(1 0 0 -1 0 63.8898)">
		<stop  offset="0" style="stop-color:#DA8CFF"/>
		<stop  offset="1" style="stop-color:#9A55FF"/>
	</linearGradient>
	<path class="st7" d="M252.6,19.7c-0.2,2.3-1.3,4.5-3.1,6c-3.8,3.5-9.8,3.2-13.3-0.6c-1.6-1.8-2.5-4.1-2.5-6.5
		c0-5.2,4.2-9.4,9.4-9.4c2,0,4,0.6,5.6,1.8v8.2l0,0c-0.1,1.4-0.8,2.7-1.8,3.6c-1,0.9-2.4,1.4-3.8,1.4c-3,0.1-5.5-2.3-5.5-5.4
		c0-0.1,0-0.1,0-0.2c0-3.1,2.5-5.5,5.5-5.5c1.2,0,2.4,0.4,3.3,1.1v-2c-3.6-1.8-7.9-0.4-9.8,3.1c-1.4,2.8-0.9,6.2,1.3,8.4
		c2.7,2.6,7,2.8,9.9,0.4c1.3-1.1,2.2-2.7,2.4-4.4L252.6,19.7z M240.9,16.2c-1.3,1.3-1.3,3.4,0,4.8c1.3,1.3,3.4,1.3,4.7,0.1
		c0.7-0.6,1-1.5,1-2.4c0-1.9-1.6-3.3-3.4-3.3C242.3,15.3,241.5,15.6,240.9,16.2z"/>
	
		<linearGradient id="SVGID_9_" gradientUnits="userSpaceOnUse" x1="144.653" y1="161.1956" x2="275.003" y2="30.8356" gradientTransform="matrix(1 0 0 -1 0 63.8898)">
		<stop  offset="0" style="stop-color:#DA8CFF"/>
		<stop  offset="1" style="stop-color:#9A55FF"/>
	</linearGradient>
	<path class="st8" d="M264.9,10.2h2.2v16.6h-2.2v-7.2H256v7.2h-2.2V10.2h2.2v7.2h8.9L264.9,10.2z"/>
	
		<linearGradient id="SVGID_10_" gradientUnits="userSpaceOnUse" x1="151.761" y1="168.3031" x2="282.1111" y2="37.9431" gradientTransform="matrix(1 0 0 -1 0 63.8898)">
		<stop  offset="0" style="stop-color:#DA8CFF"/>
		<stop  offset="1" style="stop-color:#9A55FF"/>
	</linearGradient>
	<path class="st9" d="M281.2,26.8h-2.9l-5.4-6.3l-2.4,3v3.4h-2.2V10.2h2.2v9.7l7.7-9.7h2.8l-6.8,8.6L281.2,26.8z"/>
</g>
<linearGradient id="SVGID_11_" gradientUnits="userSpaceOnUse" x1="1.5605" y1="56.3295" x2="47.0995" y2="10.7806" gradientTransform="matrix(1 0 0 -1 0 63.8898)">
	<stop  offset="0" style="stop-color:#DA8CFF"/>
	<stop  offset="1" style="stop-color:#9A55FF"/>
</linearGradient>
<path class="st10" d="M4.3,11.6h40l-20,34.7L4.3,11.6z M24.3,14.4L4.3,49h40L24.3,14.4z"/>
</svg>
